# xmcd
#
# Track frame offsets:
# 150
# 16732
# 38585
# 57507
# 75662
# 91722
# 108930
# 123302
# 140937
# 156665
# 171200
# 183240
# 198732
#
# Disc length: 2870 seconds
#
#
# Revision: 0
# Processed by: cddbd v1.5.1PL0 Copyright (c) Steve Scherf et al.
# Submitted via: FreeRIP 2.941 
#
DISCID=ac0b340d
DTITLE=Os Serranos - Sicredi
DYEAR=2005
DGENRE=Country
TTITLE0=O SICREDI É A SOLUÇÃO
TTITLE1=Criado em Galpao
TTITLE2=De Chao Batido
TTITLE3=Timbre de Galo
TTITLE4=Marca Serrana
TTITLE5=De Bem com a Vida
TTITLE6=Pinga na Goela
TTITLE7=Casamento de Sitio
TTITLE8=Produtor Rural
TTITLE9=Panela Vela
TTITLE10=Tributo ao Chimarrão
TTITLE11=China Faceira
TTITLE12=Hino do Cooperativismo
EXTD=
EXTT0=
EXTT1=
EXTT2=
EXTT3=
EXTT4=
EXTT5=
EXTT6=
EXTT7=
EXTT8=
EXTT9=
EXTT10=
EXTT11=
EXTT12=
PLAYORDER=
